<svg xmlns="http://www.w3.org/2000/svg" class="iconLeftSlogan" viewBox="0 0 300 300"><rect width="300" height="300" x="0" y="0" fill="#2B282C" class="logo-background-square"/><g id="6dc13dd8-2452-4f56-b6ca-e1f3a330b53f" fill="#fff"><path d="M0.66 6.47L0.66 6.47L0.66 6.47Q0.66 5.79 0.67 4.58L0.67 4.58L0.67 4.58Q0.68 3.37 0.68 2.68L0.68 2.68L0.68 2.68Q1.37 2.58 2.14 2.51L2.14 2.51L2.14 2.51Q2.91 2.45 3.49 2.45L3.49 2.45L3.49 2.45Q3.99 2.45 4.32 2.47L4.32 2.47L4.32 2.47Q4.66 2.48 5.05 2.53L5.05 2.53L5.05 2.53Q5.44 2.59 5.70 2.69L5.70 2.69L5.70 2.69Q5.95 2.79 6.20 2.96L6.20 2.96L6.20 2.96Q6.46 3.13 6.60 3.38L6.60 3.38L6.60 3.38Q6.74 3.63 6.83 4.00L6.83 4.00L6.83 4.00Q6.92 4.36 6.92 4.83L6.92 4.83L6.92 4.83Q6.92 5.57 6.54 6.13L6.54 6.13L6.54 6.13Q6.15 6.70 5.47 7.02L5.47 7.02L5.47 7.02Q5.93 7.18 6.22 7.67L6.22 7.67L6.22 7.67Q6.90 9.01 7.31 10.75L7.31 10.75L7.31 10.75Q6.68 10.82 5.88 10.82L5.88 10.82L5.88 10.82Q5.30 10.82 4.78 10.79L4.78 10.79L4.78 10.79Q4.72 10.79 4.66 10.75L4.66 10.75L4.66 10.75Q4.59 10.71 4.57 10.65L4.57 10.65L4.57 10.65Q3.91 8.63 3.54 7.39L3.54 7.39L3.36 7.39L3.36 7.39Q3.36 7.77 3.39 8.96L3.39 8.96L3.39 8.96Q3.41 10.14 3.42 10.75L3.42 10.75L3.42 10.75Q2.86 10.77 2.22 10.77L2.22 10.77L2.22 10.77Q1.64 10.77 0.82 10.75L0.82 10.75L0.82 10.75Q0.76 10.75 0.72 10.71L0.72 10.71L0.72 10.71Q0.68 10.67 0.68 10.61L0.68 10.61L0.68 10.61Q0.68 9.98 0.67 8.57L0.67 8.57L0.67 8.57Q0.66 7.16 0.66 6.47ZM3.35 5.70L3.35 5.70L3.58 5.70L3.58 5.70Q3.91 5.70 4.11 5.54L4.11 5.54L4.11 5.54Q4.31 5.38 4.31 5.11L4.31 5.11L4.31 5.11Q4.31 4.78 4.17 4.62L4.17 4.62L4.17 4.62Q4.03 4.45 3.68 4.45L3.68 4.45L3.68 4.45Q3.51 4.45 3.36 4.46L3.36 4.46L3.36 4.46Q3.35 5.26 3.35 5.70ZM7.82 6.65L7.82 6.65L7.82 6.65Q7.82 4.73 7.88 2.55L7.88 2.55L7.88 2.55Q8.52 2.52 10.71 2.52L10.71 2.52L10.71 2.52Q12.26 2.52 13.10 2.55L13.10 2.55L13.10 2.55Q13.15 2.55 13.19 2.59L13.19 2.59L13.19 2.59Q13.23 2.63 13.23 2.68L13.23 2.68L13.23 2.68Q13.25 3.52 13.25 3.87L13.25 3.87L13.25 3.87Q13.25 4.40 13.23 4.87L13.23 4.87L13.23 4.87Q12.66 4.90 11.06 4.90L11.06 4.90L11.06 4.90Q10.77 4.90 10.54 4.89L10.54 4.89L10.54 4.89Q10.53 5.37 10.53 5.61L10.53 5.61L10.53 5.61Q11.75 5.62 12.17 5.64L12.17 5.64L12.17 5.64Q12.22 5.64 12.26 5.68L12.26 5.68L12.26 5.68Q12.30 5.72 12.30 5.77L12.30 5.77L12.30 5.77Q12.31 6.33 12.31 6.80L12.31 6.80L12.31 6.80Q12.31 7.22 12.30 7.71L12.30 7.71L10.53 7.71L10.53 7.71Q10.53 7.95 10.54 8.43L10.54 8.43L10.71 8.43L10.71 8.43Q12.38 8.43 13.13 8.45L13.13 8.45L13.13 8.45Q13.18 8.45 13.22 8.49L13.22 8.49L13.22 8.49Q13.26 8.53 13.26 8.59L13.26 8.59L13.26 8.59Q13.28 9.42 13.28 9.77L13.28 9.77L13.28 9.77Q13.28 10.31 13.26 10.78L13.26 10.78L13.26 10.78Q12.61 10.81 10.92 10.81L10.92 10.81L10.92 10.81Q10.58 10.81 9.48 10.79L9.48 10.79L9.48 10.79Q8.37 10.76 8.01 10.75L8.01 10.75L8.01 10.75Q7.96 10.75 7.92 10.71L7.92 10.71L7.92 10.71Q7.88 10.67 7.88 10.61L7.88 10.61L7.88 10.61Q7.82 8.04 7.82 6.65ZM13.86 10.67L13.86 10.67L14.20 8.20L14.20 8.20Q15.71 8.67 16.62 8.67L16.62 8.67L16.62 8.67Q16.98 8.67 17.16 8.52L17.16 8.52L17.16 8.52Q17.35 8.37 17.35 8.19L17.35 8.19L17.35 8.19Q17.35 8.12 17.32 8.06L17.32 8.06L17.32 8.06Q17.29 8.01 17.22 7.96L17.22 7.96L17.22 7.96Q17.15 7.91 17.09 7.87L17.09 7.87L17.09 7.87Q17.03 7.84 16.90 7.79L16.90 7.79L16.90 7.79Q16.77 7.75 16.69 7.73L16.69 7.73L16.69 7.73Q16.60 7.70 16.43 7.65L16.43 7.65L16.43 7.65Q16.13 7.57 15.96 7.51L15.96 7.51L15.96 7.51Q15.79 7.46 15.48 7.33L15.48 7.33L15.48 7.33Q15.17 7.21 14.99 7.08L14.99 7.08L14.99 7.08Q14.80 6.95 14.57 6.73L14.57 6.73L14.57 6.73Q14.33 6.51 14.20 6.25L14.20 6.25L14.20 6.25Q14.06 6.00 13.97 5.63L13.97 5.63L13.97 5.63Q13.88 5.26 13.88 4.83L13.88 4.83L13.88 4.83Q13.88 4.36 13.96 4.00L13.96 4.00L13.96 4.00Q14.05 3.63 14.19 3.38L14.19 3.38L14.19 3.38Q14.32 3.13 14.57 2.96L14.57 2.96L14.57 2.96Q14.81 2.79 15.05 2.69L15.05 2.69L15.05 2.69Q15.29 2.59 15.66 2.53L15.66 2.53L15.66 2.53Q16.03 2.48 16.34 2.47L16.34 2.47L16.34 2.47Q16.66 2.45 17.12 2.45L17.12 2.45L17.12 2.45Q18.24 2.45 19.76 2.75L19.76 2.75L19.45 5.02L19.45 5.02Q18.93 4.79 18.26 4.63L18.26 4.63L18.26 4.63Q17.59 4.47 16.98 4.47L16.98 4.47L16.98 4.47Q16.67 4.47 16.48 4.57L16.48 4.57L16.48 4.57Q16.30 4.67 16.30 4.85L16.30 4.85L16.30 4.85Q16.30 4.91 16.33 4.96L16.33 4.96L16.33 4.96Q16.35 5.01 16.43 5.06L16.43 5.06L16.43 5.06Q16.51 5.11 16.57 5.15L16.57 5.15L16.57 5.15Q16.64 5.18 16.78 5.23L16.78 5.23L16.78 5.23Q16.92 5.28 17.01 5.30L17.01 5.30L17.01 5.30Q17.10 5.33 17.28 5.39L17.28 5.39L17.28 5.39Q18.12 5.64 18.55 5.84L18.55 5.84L18.55 5.84Q19.67 6.38 19.97 7.31L19.97 7.31L19.97 7.31Q20.10 7.69 20.10 8.13L20.10 8.13L20.10 8.13Q20.10 8.59 20.01 8.97L20.01 8.97L20.01 8.97Q19.92 9.34 19.76 9.62L19.76 9.62L19.76 9.62Q19.60 9.90 19.36 10.11L19.36 10.11L19.36 10.11Q19.12 10.32 18.84 10.45L18.84 10.45L18.84 10.45Q18.57 10.58 18.22 10.67L18.22 10.67L18.22 10.67Q17.87 10.75 17.52 10.78L17.52 10.78L17.52 10.78Q17.16 10.82 16.75 10.82L16.75 10.82L16.75 10.82Q15.32 10.82 13.86 10.67ZM20.48 6.64L20.48 6.64L20.48 6.64Q20.48 5.65 20.70 4.87L20.70 4.87L20.70 4.87Q20.91 4.09 21.32 3.58L21.32 3.58L21.32 3.58Q21.72 3.06 22.30 2.77L22.30 2.77L22.30 2.77Q22.87 2.49 23.60 2.45L23.60 2.45L23.60 2.45Q24.26 2.45 24.79 2.54L24.79 2.54L24.79 2.54Q25.31 2.63 25.75 2.84L25.75 2.84L25.75 2.84Q26.18 3.04 26.49 3.36L26.49 3.36L26.49 3.36Q26.80 3.69 27.01 4.15L27.01 4.15L27.01 4.15Q27.22 4.62 27.32 5.24L27.32 5.24L27.32 5.24Q27.43 5.85 27.43 6.64L27.43 6.64L27.43 6.64Q27.43 7.64 27.21 8.42L27.21 8.42L27.21 8.42Q26.99 9.19 26.58 9.71L26.58 9.71L26.58 9.71Q26.16 10.23 25.59 10.51L25.59 10.51L25.59 10.51Q25.01 10.79 24.28 10.83L24.28 10.83L24.28 10.83Q23.62 10.83 23.10 10.74L23.10 10.74L23.10 10.74Q22.58 10.65 22.14 10.45L22.14 10.45L22.14 10.45Q21.71 10.25 21.41 9.92L21.41 9.92L21.41 9.92Q21.10 9.60 20.89 9.14L20.89 9.14L20.89 9.14Q20.68 8.67 20.58 8.05L20.58 8.05L20.58 8.05Q20.48 7.44 20.48 6.64ZM23.34 6.64L23.34 6.64L23.34 6.64Q23.34 7.12 23.37 7.46L23.37 7.46L23.37 7.46Q23.40 7.79 23.45 7.99L23.45 7.99L23.45 7.99Q23.50 8.18 23.59 8.29L23.59 8.29L23.59 8.29Q23.67 8.39 23.76 8.42L23.76 8.42L23.76 8.42Q23.84 8.45 23.97 8.45L23.97 8.45L23.97 8.45Q24.09 8.45 24.17 8.42L24.17 8.42L24.17 8.42Q24.25 8.39 24.34 8.29L24.34 8.29L24.34 8.29Q24.42 8.18 24.46 7.99L24.46 7.99L24.46 7.99Q24.51 7.79 24.54 7.46L24.54 7.46L24.54 7.46Q24.57 7.12 24.57 6.64L24.57 6.64L24.57 6.64Q24.57 6.25 24.55 5.95L24.55 5.95L24.55 5.95Q24.53 5.65 24.48 5.46L24.48 5.46L24.48 5.46Q24.44 5.26 24.39 5.14L24.39 5.14L24.39 5.14Q24.34 5.01 24.26 4.95L24.26 4.95L24.26 4.95Q24.18 4.89 24.10 4.87L24.10 4.87L24.10 4.87Q24.03 4.84 23.93 4.84L23.93 4.84L23.93 4.84Q23.82 4.84 23.75 4.86L23.75 4.86L23.75 4.86Q23.68 4.88 23.61 4.95L23.61 4.95L23.61 4.95Q23.54 5.01 23.49 5.14L23.49 5.14L23.49 5.14Q23.45 5.26 23.41 5.46L23.41 5.46L23.41 5.46Q23.37 5.65 23.35 5.95L23.35 5.95L23.35 5.95Q23.34 6.24 23.34 6.64ZM27.88 6.70L27.88 6.70L27.88 6.70Q27.88 4.73 27.93 2.55L27.93 2.55L27.93 2.55Q28.58 2.52 29.13 2.52L29.13 2.52L29.13 2.52Q29.69 2.52 30.53 2.55L30.53 2.55L30.53 2.55Q30.58 2.55 30.63 2.59L30.63 2.59L30.63 2.59Q30.67 2.63 30.67 2.68L30.67 2.68L30.67 2.68Q30.72 5.25 30.72 7.11L30.72 7.11L30.72 7.11Q30.72 7.56 30.75 7.84L30.75 7.84L30.75 7.84Q30.78 8.12 30.86 8.27L30.86 8.27L30.86 8.27Q30.93 8.41 31.02 8.46L31.02 8.46L31.02 8.46Q31.12 8.51 31.27 8.51L31.27 8.51L31.27 8.51Q31.47 8.51 31.57 8.42L31.57 8.42L31.57 8.42Q31.67 8.32 31.73 8.02L31.73 8.02L31.73 8.02Q31.79 7.71 31.79 7.11L31.79 7.11L31.79 7.11Q31.79 4.73 31.84 2.55L31.84 2.55L31.84 2.55Q32.49 2.52 33.04 2.52L33.04 2.52L33.04 2.52Q33.60 2.52 34.44 2.55L34.44 2.55L34.44 2.55Q34.49 2.55 34.54 2.59L34.54 2.59L34.54 2.59Q34.58 2.63 34.58 2.68L34.58 2.68L34.58 2.68Q34.63 5.25 34.63 6.70L34.63 6.70L34.63 6.70Q34.63 7.58 34.50 8.26L34.50 8.26L34.50 8.26Q34.36 8.94 34.11 9.43L34.11 9.43L34.11 9.43Q33.87 9.91 33.49 10.22L33.49 10.22L33.49 10.22Q33.11 10.54 32.64 10.70L32.64 10.70L32.64 10.70Q32.17 10.86 31.58 10.89L31.58 10.89L31.58 10.89Q31.10 10.89 30.71 10.85L30.71 10.85L30.71 10.85Q30.33 10.81 29.97 10.72L29.97 10.72L29.97 10.72Q29.60 10.62 29.33 10.47L29.33 10.47L29.33 10.47Q29.05 10.31 28.81 10.08L28.81 10.08L28.81 10.08Q28.57 9.85 28.40 9.53L28.40 9.53L28.40 9.53Q28.23 9.22 28.11 8.80L28.11 8.80L28.11 8.80Q27.99 8.39 27.93 7.87L27.93 7.87L27.93 7.87Q27.88 7.34 27.88 6.70ZM35.38 6.47L35.38 6.47L35.38 6.47Q35.38 5.79 35.40 4.58L35.40 4.58L35.40 4.58Q35.41 3.37 35.41 2.68L35.41 2.68L35.41 2.68Q36.09 2.58 36.86 2.51L36.86 2.51L36.86 2.51Q37.64 2.45 38.21 2.45L38.21 2.45L38.21 2.45Q38.71 2.45 39.05 2.47L39.05 2.47L39.05 2.47Q39.39 2.48 39.78 2.53L39.78 2.53L39.78 2.53Q40.17 2.59 40.42 2.69L40.42 2.69L40.42 2.69Q40.68 2.79 40.93 2.96L40.93 2.96L40.93 2.96Q41.18 3.13 41.32 3.38L41.32 3.38L41.32 3.38Q41.47 3.63 41.56 4.00L41.56 4.00L41.56 4.00Q41.64 4.36 41.64 4.83L41.64 4.83L41.64 4.83Q41.64 5.57 41.26 6.13L41.26 6.13L41.26 6.13Q40.88 6.70 40.20 7.02L40.20 7.02L40.20 7.02Q40.66 7.18 40.95 7.67L40.95 7.67L40.95 7.67Q41.63 9.01 42.04 10.75L42.04 10.75L42.04 10.75Q41.41 10.82 40.61 10.82L40.61 10.82L40.61 10.82Q40.02 10.82 39.51 10.79L39.51 10.79L39.51 10.79Q39.44 10.79 39.38 10.75L39.38 10.75L39.38 10.75Q39.32 10.71 39.30 10.65L39.30 10.65L39.30 10.65Q38.63 8.63 38.26 7.39L38.26 7.39L38.08 7.39L38.08 7.39Q38.09 7.77 38.12 8.96L38.12 8.96L38.12 8.96Q38.14 10.14 38.14 10.75L38.14 10.75L38.14 10.75Q37.58 10.77 36.94 10.77L36.94 10.77L36.94 10.77Q36.37 10.77 35.55 10.75L35.55 10.75L35.55 10.75Q35.49 10.75 35.45 10.71L35.45 10.71L35.45 10.71Q35.41 10.67 35.41 10.61L35.41 10.61L35.41 10.61Q35.41 9.98 35.40 8.57L35.40 8.57L35.40 8.57Q35.38 7.16 35.38 6.47ZM38.08 5.70L38.08 5.70L38.31 5.70L38.31 5.70Q38.63 5.70 38.83 5.54L38.83 5.54L38.83 5.54Q39.03 5.38 39.03 5.11L39.03 5.11L39.03 5.11Q39.03 4.78 38.90 4.62L38.90 4.62L38.90 4.62Q38.76 4.45 38.41 4.45L38.41 4.45L38.41 4.45Q38.23 4.45 38.08 4.46L38.08 4.46L38.08 4.46Q38.08 5.26 38.08 5.70ZM42.27 6.64L42.27 6.64L42.27 6.64Q42.27 5.69 42.45 4.97L42.45 4.97L42.45 4.97Q42.62 4.26 42.93 3.78L42.93 3.78L42.93 3.78Q43.24 3.30 43.71 3.00L43.71 3.00L43.71 3.00Q44.19 2.70 44.75 2.58L44.75 2.58L44.75 2.58Q45.32 2.45 46.03 2.45L46.03 2.45L46.03 2.45Q46.42 2.45 46.76 2.51L46.76 2.51L46.76 2.51Q47.10 2.56 47.59 2.68L47.59 2.68L47.30 4.83L46.04 4.74L46.04 4.74Q45.88 4.73 45.75 4.77L45.75 4.77L45.75 4.77Q45.62 4.81 45.50 4.93L45.50 4.93L45.50 4.93Q45.38 5.05 45.31 5.26L45.31 5.26L45.31 5.26Q45.23 5.47 45.18 5.82L45.18 5.82L45.18 5.82Q45.13 6.17 45.13 6.64L45.13 6.64L45.13 6.64Q45.13 7.12 45.17 7.47L45.17 7.47L45.17 7.47Q45.22 7.82 45.29 8.03L45.29 8.03L45.29 8.03Q45.36 8.24 45.48 8.36L45.48 8.36L45.48 8.36Q45.60 8.48 45.73 8.52L45.73 8.52L45.73 8.52Q45.86 8.56 46.04 8.55L46.04 8.55L47.30 8.47L47.58 10.63L47.58 10.63Q46.76 10.78 46.01 10.78L46.01 10.78L46.01 10.78Q45.61 10.78 45.27 10.75L45.27 10.75L45.27 10.75Q44.94 10.72 44.61 10.65L44.61 10.65L44.61 10.65Q44.28 10.58 44.02 10.47L44.02 10.47L44.02 10.47Q43.75 10.35 43.51 10.18L43.51 10.18L43.51 10.18Q43.26 10.00 43.07 9.77L43.07 9.77L43.07 9.77Q42.89 9.54 42.73 9.24L42.73 9.24L42.73 9.24Q42.58 8.93 42.48 8.54L42.48 8.54L42.48 8.54Q42.38 8.16 42.33 7.69L42.33 7.69L42.33 7.69Q42.27 7.21 42.27 6.64ZM48.22 6.65L48.22 6.65L48.22 6.65Q48.22 4.73 48.28 2.55L48.28 2.55L48.28 2.55Q48.92 2.52 51.11 2.52L51.11 2.52L51.11 2.52Q52.66 2.52 53.50 2.55L53.50 2.55L53.50 2.55Q53.55 2.55 53.59 2.59L53.59 2.59L53.59 2.59Q53.63 2.63 53.63 2.68L53.63 2.68L53.63 2.68Q53.65 3.52 53.65 3.87L53.65 3.87L53.65 3.87Q53.65 4.40 53.63 4.87L53.63 4.87L53.63 4.87Q53.06 4.90 51.46 4.90L51.46 4.90L51.46 4.90Q51.17 4.90 50.94 4.89L50.94 4.89L50.94 4.89Q50.93 5.37 50.93 5.61L50.93 5.61L50.93 5.61Q52.15 5.62 52.57 5.64L52.57 5.64L52.57 5.64Q52.62 5.64 52.66 5.68L52.66 5.68L52.66 5.68Q52.71 5.72 52.71 5.77L52.71 5.77L52.71 5.77Q52.72 6.33 52.72 6.80L52.72 6.80L52.72 6.80Q52.72 7.22 52.71 7.71L52.71 7.71L50.93 7.71L50.93 7.71Q50.93 7.95 50.94 8.43L50.94 8.43L51.11 8.43L51.11 8.43Q52.78 8.43 53.53 8.45L53.53 8.45L53.53 8.45Q53.58 8.45 53.62 8.49L53.62 8.49L53.62 8.49Q53.66 8.53 53.66 8.59L53.66 8.59L53.66 8.59Q53.68 9.42 53.68 9.77L53.68 9.77L53.68 9.77Q53.68 10.31 53.66 10.78L53.66 10.78L53.66 10.78Q53.01 10.81 51.32 10.81L51.32 10.81L51.32 10.81Q50.98 10.81 49.88 10.79L49.88 10.79L49.88 10.79Q48.77 10.76 48.41 10.75L48.41 10.75L48.41 10.75Q48.36 10.75 48.32 10.71L48.32 10.71L48.32 10.71Q48.28 10.67 48.28 10.61L48.28 10.61L48.28 10.61Q48.22 8.04 48.22 6.65ZM57.98 2.55L57.98 2.55L57.98 2.55Q58.63 2.52 59.22 2.52L59.22 2.52L59.22 2.52Q60.09 2.52 60.56 2.55L60.56 2.55L60.56 2.55Q60.62 2.55 60.67 2.59L60.67 2.59L60.67 2.59Q60.72 2.63 60.73 2.68L60.73 2.68L60.73 2.68Q60.98 3.96 61.26 6.13L61.26 6.13L61.26 6.13Q61.78 3.98 62.13 2.97L62.13 2.97L62.77 2.94L63.40 2.97L63.40 2.97Q63.75 3.96 64.26 6.07L64.26 6.07L64.26 6.07Q64.57 3.72 64.76 2.55L64.76 2.55L64.76 2.55Q65.42 2.52 65.85 2.52L65.85 2.52L65.85 2.52Q66.47 2.52 67.30 2.55L67.30 2.55L67.30 2.55Q67.35 2.55 67.39 2.58L67.39 2.58L67.39 2.58Q67.42 2.61 67.42 2.66L67.42 2.66L67.42 2.66Q67.42 2.67 67.35 3.09L67.35 3.09L67.35 3.09Q66.80 6.86 65.80 10.75L65.80 10.75L65.80 10.75Q64.92 10.79 63.79 10.79L63.79 10.79L63.79 10.79Q63.65 10.29 63.29 9.18L63.29 9.18L63.29 9.18Q62.92 8.07 62.76 7.47L62.76 7.47L62.76 7.47Q62.60 8.03 62.21 9.13L62.21 9.13L62.21 9.13Q61.83 10.24 61.67 10.79L61.67 10.79L61.67 10.79Q60.88 10.79 59.76 10.75L59.76 10.75L59.76 10.75Q59.70 10.75 59.66 10.71L59.66 10.71L59.66 10.71Q59.61 10.67 59.60 10.61L59.60 10.61L59.60 10.61Q58.48 6.24 57.98 2.55ZM67.17 10.64L67.17 10.64L67.17 10.64Q67.17 10.58 67.23 10.21L67.23 10.21L67.23 10.21Q67.41 9.08 67.65 7.88L67.65 7.88L67.65 7.88Q67.88 6.68 68.25 4.89L68.25 4.89L68.25 4.89Q68.62 3.10 68.73 2.55L68.73 2.55L68.73 2.55Q69.41 2.52 70.61 2.52L70.61 2.52L70.61 2.52Q71.72 2.52 72.56 2.55L72.56 2.55L72.56 2.55Q72.61 2.55 72.66 2.59L72.66 2.59L72.66 2.59Q72.71 2.63 72.72 2.68L72.72 2.68L72.72 2.68Q72.87 3.45 73.23 5.17L73.23 5.17L73.23 5.17Q73.59 6.90 73.84 8.23L73.84 8.23L73.84 8.23Q74.10 9.56 74.28 10.75L74.28 10.75L74.28 10.75Q73.63 10.78 73.09 10.78L73.09 10.78L73.09 10.78Q72.22 10.78 71.75 10.75L71.75 10.75L71.75 10.75Q71.69 10.75 71.65 10.71L71.65 10.71L71.65 10.71Q71.60 10.67 71.59 10.61L71.59 10.61L71.59 10.61Q71.44 9.83 71.34 9.25L71.34 9.25L70.07 9.25L70.07 9.25Q69.96 9.98 69.81 10.75L69.81 10.75L69.81 10.75Q69.15 10.78 68.68 10.78L68.68 10.78L68.68 10.78Q68.11 10.78 67.28 10.75L67.28 10.75L67.28 10.75Q67.23 10.75 67.20 10.72L67.20 10.72L67.20 10.72Q67.17 10.68 67.17 10.64ZM70.30 7.47L70.30 7.47L71.07 7.47L71.07 7.47Q70.99 6.91 70.85 5.87L70.85 5.87L70.85 5.87Q70.71 4.83 70.65 4.40L70.65 4.40L70.65 4.40Q70.58 4.96 70.46 6.00L70.46 6.00L70.46 6.00Q70.35 7.04 70.30 7.47ZM74.80 6.47L74.80 6.47L74.80 6.47Q74.80 5.79 74.81 4.58L74.81 4.58L74.81 4.58Q74.83 3.37 74.83 2.68L74.83 2.68L74.83 2.68Q75.51 2.58 76.28 2.51L76.28 2.51L76.28 2.51Q77.05 2.45 77.63 2.45L77.63 2.45L77.63 2.45Q78.13 2.45 78.47 2.47L78.47 2.47L78.47 2.47Q78.80 2.48 79.20 2.53L79.20 2.53L79.20 2.53Q79.59 2.59 79.84 2.69L79.84 2.69L79.84 2.69Q80.09 2.79 80.35 2.96L80.35 2.96L80.35 2.96Q80.60 3.13 80.74 3.38L80.74 3.38L80.74 3.38Q80.88 3.63 80.97 4.00L80.97 4.00L80.97 4.00Q81.06 4.36 81.06 4.83L81.06 4.83L81.06 4.83Q81.06 5.57 80.68 6.13L80.68 6.13L80.68 6.13Q80.29 6.70 79.61 7.02L79.61 7.02L79.61 7.02Q80.08 7.18 80.37 7.67L80.37 7.67L80.37 7.67Q81.05 9.01 81.45 10.75L81.45 10.75L81.45 10.75Q80.82 10.82 80.02 10.82L80.02 10.82L80.02 10.82Q79.44 10.82 78.92 10.79L78.92 10.79L78.92 10.79Q78.86 10.79 78.80 10.75L78.80 10.75L78.80 10.75Q78.74 10.71 78.72 10.65L78.72 10.65L78.72 10.65Q78.05 8.63 77.68 7.39L77.68 7.39L77.50 7.39L77.50 7.39Q77.51 7.77 77.53 8.96L77.53 8.96L77.53 8.96Q77.56 10.14 77.56 10.75L77.56 10.75L77.56 10.75Q77 10.77 76.36 10.77L76.36 10.77L76.36 10.77Q75.78 10.77 74.96 10.75L74.96 10.75L74.96 10.75Q74.90 10.75 74.87 10.71L74.87 10.71L74.87 10.71Q74.83 10.67 74.83 10.61L74.83 10.61L74.83 10.61Q74.83 9.98 74.81 8.57L74.81 8.57L74.81 8.57Q74.80 7.16 74.80 6.47ZM77.49 5.70L77.49 5.70L77.72 5.70L77.72 5.70Q78.05 5.70 78.25 5.54L78.25 5.54L78.25 5.54Q78.45 5.38 78.45 5.11L78.45 5.11L78.45 5.11Q78.45 4.78 78.31 4.62L78.31 4.62L78.31 4.62Q78.18 4.45 77.83 4.45L77.83 4.45L77.83 4.45Q77.65 4.45 77.50 4.46L77.50 4.46L77.50 4.46Q77.49 5.26 77.49 5.70Z" transform="matrix(2.004382848739624,0,0,2.004382848739624,96.74457829434438,126.63092261462727)"/></g><g id="f61b338d-d1fd-4045-9a89-8e85e7b35897" fill="#746657" stroke="none"><path d="M17.572 23.933l4.106 7.095L32 13.189h-8.981V7.582L11.51.972 0 7.582v13.222l11.51 6.611 6.062-3.482zm10.96-8.744l-6.855 11.846-6.855-11.846h13.71z" transform="matrix(1.4083682298660278,0,0,1.4083682298660278,40,127.46610790169224)"/></g><g id="de342bb2-2992-48d0-815d-366b8de5d4f1" fill="#fff"><path d="M8.76 10.68L8.76 10.68Q8.37 11.86 7.40 12.51L7.40 12.51L7.40 12.51Q6.43 13.16 5.07 13.16L5.07 13.16L5.07 13.16Q3.81 13.16 2.86 12.58L2.86 12.58L2.86 12.58Q1.90 12.00 1.39 10.92L1.39 10.92L1.39 10.92Q0.87 9.84 0.87 8.40L0.87 8.40L0.87 8.40Q0.87 6.96 1.39 5.88L1.39 5.88L1.39 5.88Q1.90 4.80 2.86 4.22L2.86 4.22L2.86 4.22Q3.81 3.64 5.05 3.64L5.05 3.64L5.05 3.64Q7.83 3.64 8.64 5.92L8.64 5.92L7.95 6.24L7.95 6.24Q7.63 5.26 6.92 4.77L6.92 4.77L6.92 4.77Q6.22 4.28 5.10 4.28L5.10 4.28L5.10 4.28Q4.06 4.28 3.27 4.78L3.27 4.78L3.27 4.78Q2.48 5.28 2.04 6.21L2.04 6.21L2.04 6.21Q1.61 7.14 1.61 8.40L1.61 8.40L1.61 8.40Q1.61 9.66 2.04 10.59L2.04 10.59L2.04 10.59Q2.46 11.52 3.24 12.02L3.24 12.02L3.24 12.02Q4.02 12.52 5.07 12.52L5.07 12.52L5.07 12.52Q6.19 12.52 6.97 11.97L6.97 11.97L6.97 11.97Q7.76 11.42 8.06 10.42L8.06 10.42L8.76 10.68ZM18.52 12.38L24.07 12.38L24.07 13.02L17.82 13.02L17.82 3.78L18.52 3.78L18.52 12.38ZM39.12 13.02L37.95 10.12L33.53 10.12L32.38 13.02L31.64 13.02L35.34 3.78L36.16 3.78L39.86 13.02L39.12 13.02ZM33.80 9.48L37.70 9.48L36.09 5.45L35.76 4.47L35.74 4.47L35.41 5.42L33.80 9.48ZM49.28 3.78L49.28 13.02L48.58 13.02L48.58 3.78L49.28 3.78ZM67.79 3.78L67.79 13.02L67.12 13.02L67.12 6.13L67.20 4.45L67.19 4.45L63.81 13.02L63.17 13.02L59.79 4.45L59.78 4.45L59.86 6.13L59.86 13.02L59.19 13.02L59.19 3.78L60.24 3.78L63.03 10.78L63.49 12.19L63.50 12.19L63.95 10.79L66.74 3.78L67.79 3.78ZM94.54 3.78L91.27 9.42L91.27 13.02L90.57 13.02L90.57 9.42L87.29 3.78L88.12 3.78L90.92 8.69L93.72 3.78L94.54 3.78ZM106.51 3.64L106.51 3.64Q107.81 3.64 108.77 4.22L108.77 4.22L108.77 4.22Q109.73 4.80 110.25 5.87L110.25 5.87L110.25 5.87Q110.77 6.94 110.77 8.40L110.77 8.40L110.77 8.40Q110.77 9.86 110.25 10.93L110.25 10.93L110.25 10.93Q109.73 12.00 108.77 12.58L108.77 12.58L108.77 12.58Q107.81 13.16 106.51 13.16L106.51 13.16L106.51 13.16Q105.21 13.16 104.25 12.58L104.25 12.58L104.25 12.58Q103.29 12.00 102.77 10.93L102.77 10.93L102.77 10.93Q102.26 9.86 102.26 8.40L102.26 8.40L102.26 8.40Q102.26 6.94 102.77 5.87L102.77 5.87L102.77 5.87Q103.29 4.80 104.25 4.22L104.25 4.22L104.25 4.22Q105.21 3.64 106.51 3.64L106.51 3.64ZM106.51 4.28L106.51 4.28Q105.43 4.28 104.64 4.78L104.64 4.78L104.64 4.78Q103.85 5.28 103.43 6.21L103.43 6.21L103.43 6.21Q103.00 7.14 103.00 8.40L103.00 8.40L103.00 8.40Q103.00 9.66 103.43 10.59L103.43 10.59L103.43 10.59Q103.85 11.52 104.64 12.02L104.64 12.02L104.64 12.02Q105.43 12.52 106.51 12.52L106.51 12.52L106.51 12.52Q107.59 12.52 108.39 12.02L108.39 12.02L108.39 12.02Q109.19 11.52 109.61 10.59L109.61 10.59L109.61 10.59Q110.04 9.66 110.04 8.40L110.04 8.40L110.04 8.40Q110.04 7.14 109.61 6.21L109.61 6.21L109.61 6.21Q109.19 5.28 108.39 4.78L108.39 4.78L108.39 4.78Q107.59 4.28 106.51 4.28L106.51 4.28ZM127.11 3.78L127.11 9.65L127.11 9.65Q127.11 11.35 126.18 12.26L126.18 12.26L126.18 12.26Q125.26 13.16 123.55 13.16L123.55 13.16L123.55 13.16Q121.84 13.16 120.91 12.26L120.91 12.26L120.91 12.26Q119.98 11.35 119.98 9.65L119.98 9.65L119.98 3.78L120.68 3.78L120.68 9.51L120.68 9.51Q120.68 10.99 121.41 11.75L121.41 11.75L121.41 11.75Q122.14 12.52 123.55 12.52L123.55 12.52L123.55 12.52Q124.95 12.52 125.68 11.75L125.68 11.75L125.68 11.75Q126.41 10.99 126.41 9.51L126.41 9.51L126.41 3.78L127.11 3.78ZM143.85 13.02L143.02 13.02L140.38 9.02L140.34 9.02L137.61 9.02L137.61 13.02L136.91 13.02L136.91 3.78L140.34 3.78L140.34 3.78Q141.72 3.78 142.54 4.48L142.54 4.48L142.54 4.48Q143.36 5.18 143.36 6.40L143.36 6.40L143.36 6.40Q143.36 7.41 142.77 8.07L142.77 8.07L142.77 8.07Q142.18 8.74 141.16 8.93L141.16 8.93L143.85 13.02ZM137.61 4.42L137.61 8.36L140.32 8.36L140.32 8.36Q141.44 8.36 142.04 7.85L142.04 7.85L142.04 7.85Q142.63 7.35 142.63 6.40L142.63 6.40L142.63 6.40Q142.63 5.45 142.04 4.93L142.04 4.93L142.04 4.93Q141.44 4.42 140.32 4.42L140.32 4.42L137.61 4.42ZM167.31 3.78L167.31 3.78Q168.76 3.78 169.60 4.50L169.60 4.50L169.60 4.50Q170.45 5.22 170.45 6.48L170.45 6.48L170.45 6.48Q170.45 7.74 169.60 8.47L169.60 8.47L169.60 8.47Q168.76 9.20 167.31 9.20L167.31 9.20L164.95 9.20L164.95 13.02L164.25 13.02L164.25 3.78L167.31 3.78ZM167.23 8.54L167.23 8.54Q168.43 8.54 169.07 8.01L169.07 8.01L169.07 8.01Q169.71 7.48 169.71 6.48L169.71 6.48L169.71 6.48Q169.71 5.50 169.07 4.96L169.07 4.96L169.07 4.96Q168.43 4.42 167.23 4.42L167.23 4.42L164.95 4.42L164.95 8.54L167.23 8.54ZM186.41 13.02L185.58 13.02L182.94 9.02L182.90 9.02L180.17 9.02L180.17 13.02L179.47 13.02L179.47 3.78L182.90 3.78L182.90 3.78Q184.28 3.78 185.10 4.48L185.10 4.48L185.10 4.48Q185.92 5.18 185.92 6.40L185.92 6.40L185.92 6.40Q185.92 7.41 185.33 8.07L185.33 8.07L185.33 8.07Q184.74 8.74 183.72 8.93L183.72 8.93L186.41 13.02ZM180.17 4.42L180.17 8.36L182.88 8.36L182.88 8.36Q184.00 8.36 184.60 7.85L184.60 7.85L184.60 7.85Q185.19 7.35 185.19 6.40L185.19 6.40L185.19 6.40Q185.19 5.45 184.60 4.93L184.60 4.93L184.60 4.93Q184.00 4.42 182.88 4.42L182.88 4.42L180.17 4.42ZM196.13 12.38L201.96 12.38L201.96 13.02L195.43 13.02L195.43 3.78L201.74 3.78L201.74 4.42L196.13 4.42L196.13 7.99L200.56 7.99L200.56 8.65L196.13 8.65L196.13 12.38ZM218.05 10.68L218.05 10.68Q217.66 11.86 216.69 12.51L216.69 12.51L216.69 12.51Q215.71 13.16 214.35 13.16L214.35 13.16L214.35 13.16Q213.09 13.16 212.14 12.58L212.14 12.58L212.14 12.58Q211.19 12.00 210.67 10.92L210.67 10.92L210.67 10.92Q210.15 9.84 210.15 8.40L210.15 8.40L210.15 8.40Q210.15 6.96 210.67 5.88L210.67 5.88L210.67 5.88Q211.19 4.80 212.14 4.22L212.14 4.22L212.14 4.22Q213.09 3.64 214.34 3.64L214.34 3.64L214.34 3.64Q217.11 3.64 217.92 5.92L217.92 5.92L217.24 6.24L217.24 6.24Q216.92 5.26 216.21 4.77L216.21 4.77L216.21 4.77Q215.50 4.28 214.38 4.28L214.38 4.28L214.38 4.28Q213.35 4.28 212.56 4.78L212.56 4.78L212.56 4.78Q211.76 5.28 211.33 6.21L211.33 6.21L211.33 6.21Q210.90 7.14 210.90 8.40L210.90 8.40L210.90 8.40Q210.90 9.66 211.32 10.59L211.32 10.59L211.32 10.59Q211.75 11.52 212.53 12.02L212.53 12.02L212.53 12.02Q213.30 12.52 214.35 12.52L214.35 12.52L214.35 12.52Q215.47 12.52 216.26 11.97L216.26 11.97L216.26 11.97Q217.04 11.42 217.35 10.42L217.35 10.42L218.05 10.68ZM227.81 3.78L227.81 13.02L227.11 13.02L227.11 3.78L227.81 3.78ZM241.39 3.64L241.39 3.64Q242.69 3.64 243.65 4.22L243.65 4.22L243.65 4.22Q244.61 4.80 245.13 5.87L245.13 5.87L245.13 5.87Q245.64 6.94 245.64 8.40L245.64 8.40L245.64 8.40Q245.64 9.86 245.13 10.93L245.13 10.93L245.13 10.93Q244.61 12.00 243.65 12.58L243.65 12.58L243.65 12.58Q242.69 13.16 241.39 13.16L241.39 13.16L241.39 13.16Q240.09 13.16 239.13 12.58L239.13 12.58L239.13 12.58Q238.17 12.00 237.65 10.93L237.65 10.93L237.65 10.93Q237.13 9.86 237.13 8.40L237.13 8.40L237.13 8.40Q237.13 6.94 237.65 5.87L237.65 5.87L237.65 5.87Q238.17 4.80 239.13 4.22L239.13 4.22L239.13 4.22Q240.09 3.64 241.39 3.64L241.39 3.64ZM241.39 4.28L241.39 4.28Q240.31 4.28 239.52 4.78L239.52 4.78L239.52 4.78Q238.73 5.28 238.30 6.21L238.30 6.21L238.30 6.21Q237.87 7.14 237.87 8.40L237.87 8.40L237.87 8.40Q237.87 9.66 238.30 10.59L238.30 10.59L238.30 10.59Q238.73 11.52 239.52 12.02L239.52 12.02L239.52 12.02Q240.31 12.52 241.39 12.52L241.39 12.52L241.39 12.52Q242.47 12.52 243.26 12.02L243.26 12.02L243.26 12.02Q244.06 11.52 244.49 10.59L244.49 10.59L244.49 10.59Q244.92 9.66 244.92 8.40L244.92 8.40L244.92 8.40Q244.92 7.14 244.49 6.21L244.49 6.21L244.49 6.21Q244.06 5.28 243.26 4.78L243.26 4.78L243.26 4.78Q242.47 4.28 241.39 4.28L241.39 4.28ZM261.98 3.78L261.98 9.65L261.98 9.65Q261.98 11.35 261.06 12.26L261.06 12.26L261.06 12.26Q260.13 13.16 258.43 13.16L258.43 13.16L258.43 13.16Q256.72 13.16 255.79 12.26L255.79 12.26L255.79 12.26Q254.86 11.35 254.86 9.65L254.86 9.65L254.86 3.78L255.56 3.78L255.56 9.51L255.56 9.51Q255.56 10.99 256.28 11.75L256.28 11.75L256.28 11.75Q257.01 12.52 258.43 12.52L258.43 12.52L258.43 12.52Q259.83 12.52 260.55 11.75L260.55 11.75L260.55 11.75Q261.28 10.99 261.28 9.51L261.28 9.51L261.28 3.78L261.98 3.78ZM274.64 3.64L274.64 3.64Q277.24 3.64 278.12 5.68L278.12 5.68L277.52 6.17L277.52 6.17Q277.17 5.18 276.48 4.73L276.48 4.73L276.48 4.73Q275.79 4.28 274.65 4.28L274.65 4.28L274.65 4.28Q273.84 4.28 273.24 4.54L273.24 4.54L273.24 4.54Q272.64 4.79 272.32 5.22L272.32 5.22L272.32 5.22Q272.01 5.66 272.01 6.20L272.01 6.20L272.01 6.20Q272.01 6.73 272.27 7.08L272.27 7.08L272.27 7.08Q272.54 7.43 273.18 7.68L273.18 7.68L273.18 7.68Q273.81 7.92 274.93 8.12L274.93 8.12L274.93 8.12Q276.74 8.43 277.49 9.02L277.49 9.02L277.49 9.02Q278.25 9.60 278.25 10.64L278.25 10.64L278.25 10.64Q278.25 11.38 277.82 11.96L277.82 11.96L277.82 11.96Q277.38 12.53 276.59 12.84L276.59 12.84L276.59 12.84Q275.80 13.16 274.78 13.16L274.78 13.16L274.78 13.16Q273.32 13.16 272.32 12.58L272.32 12.58L272.32 12.58Q271.32 12.00 270.96 10.95L270.96 10.95L271.57 10.47L271.57 10.47Q271.85 11.47 272.70 11.99L272.70 11.99L272.70 11.99Q273.55 12.52 274.79 12.52L274.79 12.52L274.79 12.52Q276.00 12.52 276.76 12.03L276.76 12.03L276.76 12.03Q277.52 11.54 277.52 10.68L277.52 10.68L277.52 10.68Q277.52 9.94 276.90 9.51L276.90 9.51L276.90 9.51Q276.28 9.07 274.74 8.81L274.74 8.81L274.74 8.81Q273.43 8.58 272.68 8.26L272.68 8.26L272.68 8.26Q271.92 7.94 271.59 7.46L271.59 7.46L271.59 7.46Q271.26 6.99 271.26 6.27L271.26 6.27L271.26 6.27Q271.26 5.56 271.68 4.96L271.68 4.96L271.68 4.96Q272.09 4.35 272.85 4.00L272.85 4.00L272.85 4.00Q273.62 3.64 274.64 3.64L274.64 3.64ZM287.97 3.78L287.97 8.26L287.88 10.36L287.32 10.36L287.24 8.26L287.24 3.78L287.97 3.78ZM287.60 11.87L287.60 11.87Q287.88 11.87 288.06 12.05L288.06 12.05L288.06 12.05Q288.23 12.22 288.23 12.50L288.23 12.50L288.23 12.50Q288.23 12.78 288.06 12.96L288.06 12.96L288.06 12.96Q287.88 13.13 287.60 13.13L287.60 13.13L287.60 13.13Q287.32 13.13 287.15 12.96L287.15 12.96L287.15 12.96Q286.97 12.78 286.97 12.50L286.97 12.50L286.97 12.50Q286.97 12.22 287.15 12.05L287.15 12.05L287.15 12.05Q287.32 11.87 287.60 11.87L287.60 11.87Z" transform="matrix(0.5635181069374084,0,0,0.5635181069374084,97.57690708112216,156.40834702295106)"/></g></svg>