<svg xmlns="http://www.w3.org/2000/svg" class="font" viewBox="0 0 300 300"><rect width="300" height="300" x="0" y="0" fill="#2B282C" class="logo-background-square"/><g id="b1e28898-ef56-4ff6-b2e7-2556d5270a04" fill="#746657"><path d="M0.66 6.47L0.66 6.47L0.66 6.47Q0.66 5.79 0.67 4.58L0.67 4.58L0.67 4.58Q0.68 3.37 0.68 2.68L0.68 2.68L0.68 2.68Q1.37 2.58 2.14 2.51L2.14 2.51L2.14 2.51Q2.91 2.45 3.49 2.45L3.49 2.45L3.49 2.45Q3.99 2.45 4.32 2.47L4.32 2.47L4.32 2.47Q4.66 2.48 5.05 2.53L5.05 2.53L5.05 2.53Q5.44 2.59 5.70 2.69L5.70 2.69L5.70 2.69Q5.95 2.79 6.20 2.96L6.20 2.96L6.20 2.96Q6.46 3.13 6.60 3.38L6.60 3.38L6.60 3.38Q6.74 3.63 6.83 4.00L6.83 4.00L6.83 4.00Q6.92 4.36 6.92 4.83L6.92 4.83L6.92 4.83Q6.92 5.57 6.54 6.13L6.54 6.13L6.54 6.13Q6.15 6.70 5.47 7.02L5.47 7.02L5.47 7.02Q5.93 7.18 6.22 7.67L6.22 7.67L6.22 7.67Q6.90 9.01 7.31 10.75L7.31 10.75L7.31 10.75Q6.68 10.82 5.88 10.82L5.88 10.82L5.88 10.82Q5.30 10.82 4.78 10.79L4.78 10.79L4.78 10.79Q4.72 10.79 4.66 10.75L4.66 10.75L4.66 10.75Q4.59 10.71 4.57 10.65L4.57 10.65L4.57 10.65Q3.91 8.63 3.54 7.39L3.54 7.39L3.36 7.39L3.36 7.39Q3.36 7.77 3.39 8.96L3.39 8.96L3.39 8.96Q3.41 10.14 3.42 10.75L3.42 10.75L3.42 10.75Q2.86 10.77 2.22 10.77L2.22 10.77L2.22 10.77Q1.64 10.77 0.82 10.75L0.82 10.75L0.82 10.75Q0.76 10.75 0.72 10.71L0.72 10.71L0.72 10.71Q0.68 10.67 0.68 10.61L0.68 10.61L0.68 10.61Q0.68 9.98 0.67 8.57L0.67 8.57L0.67 8.57Q0.66 7.16 0.66 6.47ZM3.35 5.70L3.35 5.70L3.58 5.70L3.58 5.70Q3.91 5.70 4.11 5.54L4.11 5.54L4.11 5.54Q4.31 5.38 4.31 5.11L4.31 5.11L4.31 5.11Q4.31 4.78 4.17 4.62L4.17 4.62L4.17 4.62Q4.03 4.45 3.68 4.45L3.68 4.45L3.68 4.45Q3.51 4.45 3.36 4.46L3.36 4.46L3.36 4.46Q3.35 5.26 3.35 5.70ZM7.82 6.65L7.82 6.65L7.82 6.65Q7.82 4.73 7.88 2.55L7.88 2.55L7.88 2.55Q8.52 2.52 10.71 2.52L10.71 2.52L10.71 2.52Q12.26 2.52 13.10 2.55L13.10 2.55L13.10 2.55Q13.15 2.55 13.19 2.59L13.19 2.59L13.19 2.59Q13.23 2.63 13.23 2.68L13.23 2.68L13.23 2.68Q13.25 3.52 13.25 3.87L13.25 3.87L13.25 3.87Q13.25 4.40 13.23 4.87L13.23 4.87L13.23 4.87Q12.66 4.90 11.06 4.90L11.06 4.90L11.06 4.90Q10.77 4.90 10.54 4.89L10.54 4.89L10.54 4.89Q10.53 5.37 10.53 5.61L10.53 5.61L10.53 5.61Q11.75 5.62 12.17 5.64L12.17 5.64L12.17 5.64Q12.22 5.64 12.26 5.68L12.26 5.68L12.26 5.68Q12.30 5.72 12.30 5.77L12.30 5.77L12.30 5.77Q12.31 6.33 12.31 6.80L12.31 6.80L12.31 6.80Q12.31 7.22 12.30 7.71L12.30 7.71L10.53 7.71L10.53 7.71Q10.53 7.95 10.54 8.43L10.54 8.43L10.71 8.43L10.71 8.43Q12.38 8.43 13.13 8.45L13.13 8.45L13.13 8.45Q13.18 8.45 13.22 8.49L13.22 8.49L13.22 8.49Q13.26 8.53 13.26 8.59L13.26 8.59L13.26 8.59Q13.28 9.42 13.28 9.77L13.28 9.77L13.28 9.77Q13.28 10.31 13.26 10.78L13.26 10.78L13.26 10.78Q12.61 10.81 10.92 10.81L10.92 10.81L10.92 10.81Q10.58 10.81 9.48 10.79L9.48 10.79L9.48 10.79Q8.37 10.76 8.01 10.75L8.01 10.75L8.01 10.75Q7.96 10.75 7.92 10.71L7.92 10.71L7.92 10.71Q7.88 10.67 7.88 10.61L7.88 10.61L7.88 10.61Q7.82 8.04 7.82 6.65ZM13.86 10.67L13.86 10.67L14.20 8.20L14.20 8.20Q15.71 8.67 16.62 8.67L16.62 8.67L16.62 8.67Q16.98 8.67 17.16 8.52L17.16 8.52L17.16 8.52Q17.35 8.37 17.35 8.19L17.35 8.19L17.35 8.19Q17.35 8.12 17.32 8.06L17.32 8.06L17.32 8.06Q17.29 8.01 17.22 7.96L17.22 7.96L17.22 7.96Q17.15 7.91 17.09 7.87L17.09 7.87L17.09 7.87Q17.03 7.84 16.90 7.79L16.90 7.79L16.90 7.79Q16.77 7.75 16.69 7.73L16.69 7.73L16.69 7.73Q16.60 7.70 16.43 7.65L16.43 7.65L16.43 7.65Q16.13 7.57 15.96 7.51L15.96 7.51L15.96 7.51Q15.79 7.46 15.48 7.33L15.48 7.33L15.48 7.33Q15.17 7.21 14.99 7.08L14.99 7.08L14.99 7.08Q14.80 6.95 14.57 6.73L14.57 6.73L14.57 6.73Q14.33 6.51 14.20 6.25L14.20 6.25L14.20 6.25Q14.06 6.00 13.97 5.63L13.97 5.63L13.97 5.63Q13.88 5.26 13.88 4.83L13.88 4.83L13.88 4.83Q13.88 4.36 13.96 4.00L13.96 4.00L13.96 4.00Q14.05 3.63 14.19 3.38L14.19 3.38L14.19 3.38Q14.32 3.13 14.57 2.96L14.57 2.96L14.57 2.96Q14.81 2.79 15.05 2.69L15.05 2.69L15.05 2.69Q15.29 2.59 15.66 2.53L15.66 2.53L15.66 2.53Q16.03 2.48 16.34 2.47L16.34 2.47L16.34 2.47Q16.66 2.45 17.12 2.45L17.12 2.45L17.12 2.45Q18.24 2.45 19.76 2.75L19.76 2.75L19.45 5.02L19.45 5.02Q18.93 4.79 18.26 4.63L18.26 4.63L18.26 4.63Q17.59 4.47 16.98 4.47L16.98 4.47L16.98 4.47Q16.67 4.47 16.48 4.57L16.48 4.57L16.48 4.57Q16.30 4.67 16.30 4.85L16.30 4.85L16.30 4.85Q16.30 4.91 16.33 4.96L16.33 4.96L16.33 4.96Q16.35 5.01 16.43 5.06L16.43 5.06L16.43 5.06Q16.51 5.11 16.57 5.15L16.57 5.15L16.57 5.15Q16.64 5.18 16.78 5.23L16.78 5.23L16.78 5.23Q16.92 5.28 17.01 5.30L17.01 5.30L17.01 5.30Q17.10 5.33 17.28 5.39L17.28 5.39L17.28 5.39Q18.12 5.64 18.55 5.84L18.55 5.84L18.55 5.84Q19.67 6.38 19.97 7.31L19.97 7.31L19.97 7.31Q20.10 7.69 20.10 8.13L20.10 8.13L20.10 8.13Q20.10 8.59 20.01 8.97L20.01 8.97L20.01 8.97Q19.92 9.34 19.76 9.62L19.76 9.62L19.76 9.62Q19.60 9.90 19.36 10.11L19.36 10.11L19.36 10.11Q19.12 10.32 18.84 10.45L18.84 10.45L18.84 10.45Q18.57 10.58 18.22 10.67L18.22 10.67L18.22 10.67Q17.87 10.75 17.52 10.78L17.52 10.78L17.52 10.78Q17.16 10.82 16.75 10.82L16.75 10.82L16.75 10.82Q15.32 10.82 13.86 10.67ZM20.48 6.64L20.48 6.64L20.48 6.64Q20.48 5.65 20.70 4.87L20.70 4.87L20.70 4.87Q20.91 4.09 21.32 3.58L21.32 3.58L21.32 3.58Q21.72 3.06 22.30 2.77L22.30 2.77L22.30 2.77Q22.87 2.49 23.60 2.45L23.60 2.45L23.60 2.45Q24.26 2.45 24.79 2.54L24.79 2.54L24.79 2.54Q25.31 2.63 25.75 2.84L25.75 2.84L25.75 2.84Q26.18 3.04 26.49 3.36L26.49 3.36L26.49 3.36Q26.80 3.69 27.01 4.15L27.01 4.15L27.01 4.15Q27.22 4.62 27.32 5.24L27.32 5.24L27.32 5.24Q27.43 5.85 27.43 6.64L27.43 6.64L27.43 6.64Q27.43 7.64 27.21 8.42L27.21 8.42L27.21 8.42Q26.99 9.19 26.58 9.71L26.58 9.71L26.58 9.71Q26.16 10.23 25.59 10.51L25.59 10.51L25.59 10.51Q25.01 10.79 24.28 10.83L24.28 10.83L24.28 10.83Q23.62 10.83 23.10 10.74L23.10 10.74L23.10 10.74Q22.58 10.65 22.14 10.45L22.14 10.45L22.14 10.45Q21.71 10.25 21.41 9.92L21.41 9.92L21.41 9.92Q21.10 9.60 20.89 9.14L20.89 9.14L20.89 9.14Q20.68 8.67 20.58 8.05L20.58 8.05L20.58 8.05Q20.48 7.44 20.48 6.64ZM23.34 6.64L23.34 6.64L23.34 6.64Q23.34 7.12 23.37 7.46L23.37 7.46L23.37 7.46Q23.40 7.79 23.45 7.99L23.45 7.99L23.45 7.99Q23.50 8.18 23.59 8.29L23.59 8.29L23.59 8.29Q23.67 8.39 23.76 8.42L23.76 8.42L23.76 8.42Q23.84 8.45 23.97 8.45L23.97 8.45L23.97 8.45Q24.09 8.45 24.17 8.42L24.17 8.42L24.17 8.42Q24.25 8.39 24.34 8.29L24.34 8.29L24.34 8.29Q24.42 8.18 24.46 7.99L24.46 7.99L24.46 7.99Q24.51 7.79 24.54 7.46L24.54 7.46L24.54 7.46Q24.57 7.12 24.57 6.64L24.57 6.64L24.57 6.64Q24.57 6.25 24.55 5.95L24.55 5.95L24.55 5.95Q24.53 5.65 24.48 5.46L24.48 5.46L24.48 5.46Q24.44 5.26 24.39 5.14L24.39 5.14L24.39 5.14Q24.34 5.01 24.26 4.95L24.26 4.95L24.26 4.95Q24.18 4.89 24.10 4.87L24.10 4.87L24.10 4.87Q24.03 4.84 23.93 4.84L23.93 4.84L23.93 4.84Q23.82 4.84 23.75 4.86L23.75 4.86L23.75 4.86Q23.68 4.88 23.61 4.95L23.61 4.95L23.61 4.95Q23.54 5.01 23.49 5.14L23.49 5.14L23.49 5.14Q23.45 5.26 23.41 5.46L23.41 5.46L23.41 5.46Q23.37 5.65 23.35 5.95L23.35 5.95L23.35 5.95Q23.34 6.24 23.34 6.64ZM27.88 6.70L27.88 6.70L27.88 6.70Q27.88 4.73 27.93 2.55L27.93 2.55L27.93 2.55Q28.58 2.52 29.13 2.52L29.13 2.52L29.13 2.52Q29.69 2.52 30.53 2.55L30.53 2.55L30.53 2.55Q30.58 2.55 30.63 2.59L30.63 2.59L30.63 2.59Q30.67 2.63 30.67 2.68L30.67 2.68L30.67 2.68Q30.72 5.25 30.72 7.11L30.72 7.11L30.72 7.11Q30.72 7.56 30.75 7.84L30.75 7.84L30.75 7.84Q30.78 8.12 30.86 8.27L30.86 8.27L30.86 8.27Q30.93 8.41 31.02 8.46L31.02 8.46L31.02 8.46Q31.12 8.51 31.27 8.51L31.27 8.51L31.27 8.51Q31.47 8.51 31.57 8.42L31.57 8.42L31.57 8.42Q31.67 8.32 31.73 8.02L31.73 8.02L31.73 8.02Q31.79 7.71 31.79 7.11L31.79 7.11L31.79 7.11Q31.79 4.73 31.84 2.55L31.84 2.55L31.84 2.55Q32.49 2.52 33.04 2.52L33.04 2.52L33.04 2.52Q33.60 2.52 34.44 2.55L34.44 2.55L34.44 2.55Q34.49 2.55 34.54 2.59L34.54 2.59L34.54 2.59Q34.58 2.63 34.58 2.68L34.58 2.68L34.58 2.68Q34.63 5.25 34.63 6.70L34.63 6.70L34.63 6.70Q34.63 7.58 34.50 8.26L34.50 8.26L34.50 8.26Q34.36 8.94 34.11 9.43L34.11 9.43L34.11 9.43Q33.87 9.91 33.49 10.22L33.49 10.22L33.49 10.22Q33.11 10.54 32.64 10.70L32.64 10.70L32.64 10.70Q32.17 10.86 31.58 10.89L31.58 10.89L31.58 10.89Q31.10 10.89 30.71 10.85L30.71 10.85L30.71 10.85Q30.33 10.81 29.97 10.72L29.97 10.72L29.97 10.72Q29.60 10.62 29.33 10.47L29.33 10.47L29.33 10.47Q29.05 10.31 28.81 10.08L28.81 10.08L28.81 10.08Q28.57 9.85 28.40 9.53L28.40 9.53L28.40 9.53Q28.23 9.22 28.11 8.80L28.11 8.80L28.11 8.80Q27.99 8.39 27.93 7.87L27.93 7.87L27.93 7.87Q27.88 7.34 27.88 6.70ZM35.38 6.47L35.38 6.47L35.38 6.47Q35.38 5.79 35.40 4.58L35.40 4.58L35.40 4.58Q35.41 3.37 35.41 2.68L35.41 2.68L35.41 2.68Q36.09 2.58 36.86 2.51L36.86 2.51L36.86 2.51Q37.64 2.45 38.21 2.45L38.21 2.45L38.21 2.45Q38.71 2.45 39.05 2.47L39.05 2.47L39.05 2.47Q39.39 2.48 39.78 2.53L39.78 2.53L39.78 2.53Q40.17 2.59 40.42 2.69L40.42 2.69L40.42 2.69Q40.68 2.79 40.93 2.96L40.93 2.96L40.93 2.96Q41.18 3.13 41.32 3.38L41.32 3.38L41.32 3.38Q41.47 3.63 41.56 4.00L41.56 4.00L41.56 4.00Q41.64 4.36 41.64 4.83L41.64 4.83L41.64 4.83Q41.64 5.57 41.26 6.13L41.26 6.13L41.26 6.13Q40.88 6.70 40.20 7.02L40.20 7.02L40.20 7.02Q40.66 7.18 40.95 7.67L40.95 7.67L40.95 7.67Q41.63 9.01 42.04 10.75L42.04 10.75L42.04 10.75Q41.41 10.82 40.61 10.82L40.61 10.82L40.61 10.82Q40.02 10.82 39.51 10.79L39.51 10.79L39.51 10.79Q39.44 10.79 39.38 10.75L39.38 10.75L39.38 10.75Q39.32 10.71 39.30 10.65L39.30 10.65L39.30 10.65Q38.63 8.63 38.26 7.39L38.26 7.39L38.08 7.39L38.08 7.39Q38.09 7.77 38.12 8.96L38.12 8.96L38.12 8.96Q38.14 10.14 38.14 10.75L38.14 10.75L38.14 10.75Q37.58 10.77 36.94 10.77L36.94 10.77L36.94 10.77Q36.37 10.77 35.55 10.75L35.55 10.75L35.55 10.75Q35.49 10.75 35.45 10.71L35.45 10.71L35.45 10.71Q35.41 10.67 35.41 10.61L35.41 10.61L35.41 10.61Q35.41 9.98 35.40 8.57L35.40 8.57L35.40 8.57Q35.38 7.16 35.38 6.47ZM38.08 5.70L38.08 5.70L38.31 5.70L38.31 5.70Q38.63 5.70 38.83 5.54L38.83 5.54L38.83 5.54Q39.03 5.38 39.03 5.11L39.03 5.11L39.03 5.11Q39.03 4.78 38.90 4.62L38.90 4.62L38.90 4.62Q38.76 4.45 38.41 4.45L38.41 4.45L38.41 4.45Q38.23 4.45 38.08 4.46L38.08 4.46L38.08 4.46Q38.08 5.26 38.08 5.70ZM42.27 6.64L42.27 6.64L42.27 6.64Q42.27 5.69 42.45 4.97L42.45 4.97L42.45 4.97Q42.62 4.26 42.93 3.78L42.93 3.78L42.93 3.78Q43.24 3.30 43.71 3.00L43.71 3.00L43.71 3.00Q44.19 2.70 44.75 2.58L44.75 2.58L44.75 2.58Q45.32 2.45 46.03 2.45L46.03 2.45L46.03 2.45Q46.42 2.45 46.76 2.51L46.76 2.51L46.76 2.51Q47.10 2.56 47.59 2.68L47.59 2.68L47.30 4.83L46.04 4.74L46.04 4.74Q45.88 4.73 45.75 4.77L45.75 4.77L45.75 4.77Q45.62 4.81 45.50 4.93L45.50 4.93L45.50 4.93Q45.38 5.05 45.31 5.26L45.31 5.26L45.31 5.26Q45.23 5.47 45.18 5.82L45.18 5.82L45.18 5.82Q45.13 6.17 45.13 6.64L45.13 6.64L45.13 6.64Q45.13 7.12 45.17 7.47L45.17 7.47L45.17 7.47Q45.22 7.82 45.29 8.03L45.29 8.03L45.29 8.03Q45.36 8.24 45.48 8.36L45.48 8.36L45.48 8.36Q45.60 8.48 45.73 8.52L45.73 8.52L45.73 8.52Q45.86 8.56 46.04 8.55L46.04 8.55L47.30 8.47L47.58 10.63L47.58 10.63Q46.76 10.78 46.01 10.78L46.01 10.78L46.01 10.78Q45.61 10.78 45.27 10.75L45.27 10.75L45.27 10.75Q44.94 10.72 44.61 10.65L44.61 10.65L44.61 10.65Q44.28 10.58 44.02 10.47L44.02 10.47L44.02 10.47Q43.75 10.35 43.51 10.18L43.51 10.18L43.51 10.18Q43.26 10.00 43.07 9.77L43.07 9.77L43.07 9.77Q42.89 9.54 42.73 9.24L42.73 9.24L42.73 9.24Q42.58 8.93 42.48 8.54L42.48 8.54L42.48 8.54Q42.38 8.16 42.33 7.69L42.33 7.69L42.33 7.69Q42.27 7.21 42.27 6.64ZM48.22 6.65L48.22 6.65L48.22 6.65Q48.22 4.73 48.28 2.55L48.28 2.55L48.28 2.55Q48.92 2.52 51.11 2.52L51.11 2.52L51.11 2.52Q52.66 2.52 53.50 2.55L53.50 2.55L53.50 2.55Q53.55 2.55 53.59 2.59L53.59 2.59L53.59 2.59Q53.63 2.63 53.63 2.68L53.63 2.68L53.63 2.68Q53.65 3.52 53.65 3.87L53.65 3.87L53.65 3.87Q53.65 4.40 53.63 4.87L53.63 4.87L53.63 4.87Q53.06 4.90 51.46 4.90L51.46 4.90L51.46 4.90Q51.17 4.90 50.94 4.89L50.94 4.89L50.94 4.89Q50.93 5.37 50.93 5.61L50.93 5.61L50.93 5.61Q52.15 5.62 52.57 5.64L52.57 5.64L52.57 5.64Q52.62 5.64 52.66 5.68L52.66 5.68L52.66 5.68Q52.71 5.72 52.71 5.77L52.71 5.77L52.71 5.77Q52.72 6.33 52.72 6.80L52.72 6.80L52.72 6.80Q52.72 7.22 52.71 7.71L52.71 7.71L50.93 7.71L50.93 7.71Q50.93 7.95 50.94 8.43L50.94 8.43L51.11 8.43L51.11 8.43Q52.78 8.43 53.53 8.45L53.53 8.45L53.53 8.45Q53.58 8.45 53.62 8.49L53.62 8.49L53.62 8.49Q53.66 8.53 53.66 8.59L53.66 8.59L53.66 8.59Q53.68 9.42 53.68 9.77L53.68 9.77L53.68 9.77Q53.68 10.31 53.66 10.78L53.66 10.78L53.66 10.78Q53.01 10.81 51.32 10.81L51.32 10.81L51.32 10.81Q50.98 10.81 49.88 10.79L49.88 10.79L49.88 10.79Q48.77 10.76 48.41 10.75L48.41 10.75L48.41 10.75Q48.36 10.75 48.32 10.71L48.32 10.71L48.32 10.71Q48.28 10.67 48.28 10.61L48.28 10.61L48.28 10.61Q48.22 8.04 48.22 6.65ZM57.98 2.55L57.98 2.55L57.98 2.55Q58.63 2.52 59.22 2.52L59.22 2.52L59.22 2.52Q60.09 2.52 60.56 2.55L60.56 2.55L60.56 2.55Q60.62 2.55 60.67 2.59L60.67 2.59L60.67 2.59Q60.72 2.63 60.73 2.68L60.73 2.68L60.73 2.68Q60.98 3.96 61.26 6.13L61.26 6.13L61.26 6.13Q61.78 3.98 62.13 2.97L62.13 2.97L62.77 2.94L63.40 2.97L63.40 2.97Q63.75 3.96 64.26 6.07L64.26 6.07L64.26 6.07Q64.57 3.72 64.76 2.55L64.76 2.55L64.76 2.55Q65.42 2.52 65.85 2.52L65.85 2.52L65.85 2.52Q66.47 2.52 67.30 2.55L67.30 2.55L67.30 2.55Q67.35 2.55 67.39 2.58L67.39 2.58L67.39 2.58Q67.42 2.61 67.42 2.66L67.42 2.66L67.42 2.66Q67.42 2.67 67.35 3.09L67.35 3.09L67.35 3.09Q66.80 6.86 65.80 10.75L65.80 10.75L65.80 10.75Q64.92 10.79 63.79 10.79L63.79 10.79L63.79 10.79Q63.65 10.29 63.29 9.18L63.29 9.18L63.29 9.18Q62.92 8.07 62.76 7.47L62.76 7.47L62.76 7.47Q62.60 8.03 62.21 9.13L62.21 9.13L62.21 9.13Q61.83 10.24 61.67 10.79L61.67 10.79L61.67 10.79Q60.88 10.79 59.76 10.75L59.76 10.75L59.76 10.75Q59.70 10.75 59.66 10.71L59.66 10.71L59.66 10.71Q59.61 10.67 59.60 10.61L59.60 10.61L59.60 10.61Q58.48 6.24 57.98 2.55ZM67.17 10.64L67.17 10.64L67.17 10.64Q67.17 10.58 67.23 10.21L67.23 10.21L67.23 10.21Q67.41 9.08 67.65 7.88L67.65 7.88L67.65 7.88Q67.88 6.68 68.25 4.89L68.25 4.89L68.25 4.89Q68.62 3.10 68.73 2.55L68.73 2.55L68.73 2.55Q69.41 2.52 70.61 2.52L70.61 2.52L70.61 2.52Q71.72 2.52 72.56 2.55L72.56 2.55L72.56 2.55Q72.61 2.55 72.66 2.59L72.66 2.59L72.66 2.59Q72.71 2.63 72.72 2.68L72.72 2.68L72.72 2.68Q72.87 3.45 73.23 5.17L73.23 5.17L73.23 5.17Q73.59 6.90 73.84 8.23L73.84 8.23L73.84 8.23Q74.10 9.56 74.28 10.75L74.28 10.75L74.28 10.75Q73.63 10.78 73.09 10.78L73.09 10.78L73.09 10.78Q72.22 10.78 71.75 10.75L71.75 10.75L71.75 10.75Q71.69 10.75 71.65 10.71L71.65 10.71L71.65 10.71Q71.60 10.67 71.59 10.61L71.59 10.61L71.59 10.61Q71.44 9.83 71.34 9.25L71.34 9.25L70.07 9.25L70.07 9.25Q69.96 9.98 69.81 10.75L69.81 10.75L69.81 10.75Q69.15 10.78 68.68 10.78L68.68 10.78L68.68 10.78Q68.11 10.78 67.28 10.75L67.28 10.75L67.28 10.75Q67.23 10.75 67.20 10.72L67.20 10.72L67.20 10.72Q67.17 10.68 67.17 10.64ZM70.30 7.47L70.30 7.47L71.07 7.47L71.07 7.47Q70.99 6.91 70.85 5.87L70.85 5.87L70.85 5.87Q70.71 4.83 70.65 4.40L70.65 4.40L70.65 4.40Q70.58 4.96 70.46 6.00L70.46 6.00L70.46 6.00Q70.35 7.04 70.30 7.47ZM74.80 6.47L74.80 6.47L74.80 6.47Q74.80 5.79 74.81 4.58L74.81 4.58L74.81 4.58Q74.83 3.37 74.83 2.68L74.83 2.68L74.83 2.68Q75.51 2.58 76.28 2.51L76.28 2.51L76.28 2.51Q77.05 2.45 77.63 2.45L77.63 2.45L77.63 2.45Q78.13 2.45 78.47 2.47L78.47 2.47L78.47 2.47Q78.80 2.48 79.20 2.53L79.20 2.53L79.20 2.53Q79.59 2.59 79.84 2.69L79.84 2.69L79.84 2.69Q80.09 2.79 80.35 2.96L80.35 2.96L80.35 2.96Q80.60 3.13 80.74 3.38L80.74 3.38L80.74 3.38Q80.88 3.63 80.97 4.00L80.97 4.00L80.97 4.00Q81.06 4.36 81.06 4.83L81.06 4.83L81.06 4.83Q81.06 5.57 80.68 6.13L80.68 6.13L80.68 6.13Q80.29 6.70 79.61 7.02L79.61 7.02L79.61 7.02Q80.08 7.18 80.37 7.67L80.37 7.67L80.37 7.67Q81.05 9.01 81.45 10.75L81.45 10.75L81.45 10.75Q80.82 10.82 80.02 10.82L80.02 10.82L80.02 10.82Q79.44 10.82 78.92 10.79L78.92 10.79L78.92 10.79Q78.86 10.79 78.80 10.75L78.80 10.75L78.80 10.75Q78.74 10.71 78.72 10.65L78.72 10.65L78.72 10.65Q78.05 8.63 77.68 7.39L77.68 7.39L77.50 7.39L77.50 7.39Q77.51 7.77 77.53 8.96L77.53 8.96L77.53 8.96Q77.56 10.14 77.56 10.75L77.56 10.75L77.56 10.75Q77 10.77 76.36 10.77L76.36 10.77L76.36 10.77Q75.78 10.77 74.96 10.75L74.96 10.75L74.96 10.75Q74.90 10.75 74.87 10.71L74.87 10.71L74.87 10.71Q74.83 10.67 74.83 10.61L74.83 10.61L74.83 10.61Q74.83 9.98 74.81 8.57L74.81 8.57L74.81 8.57Q74.80 7.16 74.80 6.47ZM77.49 5.70L77.49 5.70L77.72 5.70L77.72 5.70Q78.05 5.70 78.25 5.54L78.25 5.54L78.25 5.54Q78.45 5.38 78.45 5.11L78.45 5.11L78.45 5.11Q78.45 4.78 78.31 4.62L78.31 4.62L78.31 4.62Q78.18 4.45 77.83 4.45L77.83 4.45L77.83 4.45Q77.65 4.45 77.50 4.46L77.50 4.46L77.50 4.46Q77.49 5.26 77.49 5.70Z" transform="matrix(2.7231409549713135,0,0,2.7231409549713135,38.20230151822841,131.8368629726332)"/></g></svg>